HIERARCHY
ROOT Hips
{
    OFFSET 0.000000 0.000000 0.000000
    CHANNELS 6 Xposition Yposition Zposition Zrotation Xrotation Yrotation
    JOINT Spine
    {
        OFFSET -0.000000 7.246840 0.000000
        CHANNELS 3 Zrotation Xrotation Yrotation
        JOINT Spine1
        {
            OFFSET -0.000000 20.289354 0.000000
            CHANNELS 3 Zrotation Xrotation Yrotation
            JOINT Neck
            {
                OFFSET -0.000000 20.206032 1.836912
                CHANNELS 3 Zrotation Xrotation Yrotation
                JOINT Head
                {
                    OFFSET -0.000000 12.372654 -1.767522
                    CHANNELS 3 Zrotation Xrotation Yrotation
                    End Site
                    {
                        OFFSET -0.000000 22.094025 0.000000
                    }
                }
            }
            JOINT LeftShoulder
            {
                OFFSET 3.465871 17.201674 -0.568930
                CHANNELS 3 Zrotation Xrotation Yrotation
                JOINT LeftArm
                {
                    OFFSET 14.070313 0.000000 0.000000
                    CHANNELS 3 Zrotation Xrotation Yrotation
                    JOINT LeftForeArm
                    {
                        OFFSET 26.549477 0.000000 0.000000
                        CHANNELS 3 Zrotation Xrotation Yrotation
                        JOINT LeftHand
                        {
                            OFFSET 18.880413 0.000000 0.000000
                            CHANNELS 3 Zrotation Xrotation Yrotation
                            End Site
                            {
                                OFFSET 13.256415 0.000000 0.000000
                            }
                        }
                    }
                }
            }
            JOINT RightShoulder
            {
                OFFSET -3.526370 17.201674 -0.568930
                CHANNELS 3 Zrotation Xrotation Yrotation
                JOINT RightArm
                {
                    OFFSET -14.070313 0.000000 0.000000
                    CHANNELS 3 Zrotation Xrotation Yrotation
                    JOINT RightForeArm
                    {
                        OFFSET -26.549477 0.000000 0.000000
                        CHANNELS 3 Zrotation Xrotation Yrotation
                        JOINT RightHand
                        {
                            OFFSET -18.880413 0.000000 0.000000
                            CHANNELS 3 Zrotation Xrotation Yrotation
                            End Site
                            {
                                OFFSET -13.256415 0.000000 0.000000
                            }
                        }
                    }
                }
            }
        }
    }
    JOINT LeftUpLeg
    {
        OFFSET 8.837609 0.000000 0.000000
        CHANNELS 3 Zrotation Xrotation Yrotation
        JOINT LeftLeg
        {
            OFFSET -0.000000 -41.345005 0.000000
            CHANNELS 3 Zrotation Xrotation Yrotation
            JOINT LeftFoot
            {
                OFFSET -0.000000 -35.500874 0.000000
                CHANNELS 3 Zrotation Xrotation Yrotation
                JOINT LeftToeBase
                {
                    OFFSET -0.000000 -5.744446 13.256415
                    CHANNELS 3 Zrotation Xrotation Yrotation
                    End Site
                    {
                        OFFSET -0.000000 0.000000 3.535044
                    }
                }
            }
        }
    }
    JOINT RightUpLeg
    {
        OFFSET -8.837609 0.000000 0.000000
        CHANNELS 3 Zrotation Xrotation Yrotation
        JOINT RightLeg
        {
            OFFSET -0.000000 -41.345005 0.000000
            CHANNELS 3 Zrotation Xrotation Yrotation
            JOINT RightFoot
            {
                OFFSET -0.000000 -35.500874 0.000000
                CHANNELS 3 Zrotation Xrotation Yrotation
                JOINT RightToeBase
                {
                    OFFSET -0.000000 -5.744446 13.256415
                    CHANNELS 3 Zrotation Xrotation Yrotation
                    End Site
                    {
                        OFFSET -0.000000 0.000000 3.535044
                    }
                }
            }
        }
    }
}
MOTION
Frames:    10
Frame Time:    0.010000
22.444239    74.762917    20.304939    9.832725    -11.826544    -32.841507    -11.331295    -1.750951    -0.087419    -3.742432    11.907758    0.477453    0.698506    30.554693    7.133079    11.634972    -33.043209    12.417812    3.257365    5.108309    13.855355    -79.267487    8.816958    -10.599576    13.723930    -27.249493    -72.094208    27.067644    -21.601194    -15.905578    -6.519288    7.761652    7.388289    77.072708    21.267014    -3.204254    -4.708961    -33.225689    37.121559    -25.878746    -35.343189    17.883154    -14.342680    -4.852452    2.423047    -0.779000    39.356720    -7.140854    14.795630    -20.989883    6.189083    -4.607629    -6.260755    6.708229    -18.411583    -25.707785    -0.728343    -24.515417    71.076851    21.671354    6.730818    -10.758285    -20.183725    1.994522    -20.076555    -4.720843    
22.571268    74.363159    20.137426    9.768826    -12.368882    -34.257259    -10.774009    -1.011196    0.317431    -5.055714    12.171511    0.952207    0.970874    30.209885    5.990279    13.158099    -34.418571    12.071205    3.345324    4.618613    13.288381    -79.840385    8.455201    -10.928452    11.535159    -27.028009    -69.402664    29.366627    -23.181231    -14.338964    -6.261921    7.512732    7.685578    78.023781    23.454695    -3.220140    -2.603970    -35.619770    35.386173    -18.576031    -37.631645    20.187277    -14.267840    -5.601964    3.399391    -1.622935    41.321014    -6.427105    15.264520    -21.585482    6.818423    -4.562283    -6.483905    6.652319    -18.725700    -25.641344    -2.340573    -26.092365    70.448181    21.520884    6.238693    -13.265482    -19.615843    1.690156    -18.827967    -3.913468    
22.735519    74.040138    19.922464    9.650025    -12.790423    -35.617184    -10.156641    -0.029632    0.492597    -6.323539    12.116001    1.166941    1.180197    29.759956    5.005118    14.664668    -35.745720    11.901390    3.602509    4.240406    12.875548    -80.453690    7.838000    -11.207481    7.095044    -26.651731    -68.057610    33.180187    -26.178431    -14.255354    -6.023877    7.358552    8.108139    78.845345    25.281296    -3.037939    -1.669305    -37.571304    32.999344    -8.732592    -38.574539    22.846035    -13.964083    -6.338654    4.462459    -2.600228    42.935104    -5.676049    15.399428    -22.006420    7.079803    -4.437591    -6.654425    6.478208    -19.076067    -25.648922    -4.370442    -27.594460    69.559296    21.035440    6.065975    -15.192990    -18.370810    1.578049    -18.021503    -3.603854    
22.858780    73.753670    19.736694    9.386097    -13.338201    -37.089516    -9.695937    1.250441    0.572919    -7.455729    11.797604    1.238160    1.585775    29.506933    4.061771    16.001852    -37.236168    11.782770    3.978501    3.984959    12.459117    -80.455284    10.297904    -11.367988    7.235151    -28.944269    -63.631634    31.613260    -27.845949    -11.432473    -5.618420    7.371873    8.647798    79.382317    26.990959    -2.965207    -1.707464    -38.685242    30.574047    1.808771    -38.008564    24.753447    -13.555689    -6.673847    6.053529    -3.307446    44.256901    -5.190940    15.444499    -22.413523    7.133599    -3.817277    -6.702268    5.575282    -19.438513    -25.513735    -6.421135    -28.802668    68.616638    20.319416    7.684755    -16.833431    -16.303024    1.481386    -18.157896    -3.391047    
22.969957    73.536491    19.503239    9.114841    -13.549048    -38.584667    -9.558629    2.044961    0.577703    -7.714561    12.122159    1.227160    2.789024    28.718109    3.058859    15.293817    -39.046524    10.789051    4.232357    3.539451    11.808386    -80.591621    11.583019    -11.192994    3.688942    -29.911943    -62.007195    32.675755    -30.857763    -11.265721    -5.599150    6.849311    8.829495    79.801865    28.035788    -3.026511    -2.037706    -38.791969    28.287352    13.263997    -35.860897    26.793032    -12.967432    -7.065223    7.690613    -3.854792    45.153786    -4.823411    15.877301    -22.657585    7.238797    -3.814032    -6.734300    5.571763    -19.683186    -25.688524    -8.488293    -29.275705    67.717659    19.175865    8.647594    -18.198751    -14.934642    1.140790    -18.010500    -2.605104    
23.046600    73.408852    19.370388    8.778713    -13.829173    -40.421135    -9.381948    2.734188    0.498242    -8.693265    12.267117    1.209642    4.210504    28.283342    2.283552    15.960667    -40.754433    10.698490    5.480244    3.814954    11.271626    -81.250481    13.368999    -11.193571    1.953310    -30.737520    -59.442375    32.151176    -32.437099    -10.758519    -4.609778    6.915421    9.662851    79.475204    29.157202    -3.103569    -3.385790    -38.107441    26.034424    24.749866    -32.253281    28.476719    -12.502777    -7.056398    9.883378    -4.702743    44.131905    -4.775281    16.321209    -21.204222    7.222445    -3.582709    -6.830017    5.237513    -19.968887    -25.847708    -10.078082    -28.684862    66.849129    17.392183    9.021533    -19.126997    -13.629880    0.903776    -17.512249    -2.046747    
23.146561    73.332260    19.171324    8.600584    -13.797369    -42.098427    -9.838669    3.277418    0.344026    -7.371800    12.700486    0.883451    2.765881    26.738770    1.584871    18.322737    -41.840271    11.109360    4.683021    3.417088    10.471169    -80.586609    13.595912    -10.883131    0.214946    -28.755884    -56.481052    30.155739    -31.081301    -10.357104    -5.663005    6.264836    9.240833    80.305313    30.733284    -3.074129    -5.537138    -36.489025    23.917681    34.219070    -27.824442    28.810246    -12.111969    -7.349329    11.924671    -4.704490    43.689342    -5.010496    16.414797    -20.479811    7.179805    -3.611069    -6.923034    5.282301    -20.329460    -26.368176    -11.648396    -27.388954    66.229637    16.459101    7.849736    -20.004927    -13.785283    0.707343    -16.663109    -1.579688    
23.238569    73.302963    18.987196    8.517741    -13.675919    -43.645031    -9.989622    3.895038    -0.099266    -8.169426    11.965165    0.417464    5.371618    27.489700    0.980407    18.442072    -44.417965    11.270665    6.813815    4.623475    9.423714    -81.868668    14.957758    -11.116156    0.028513    -27.727669    -53.034878    28.547537    -30.036779    -10.391272    -4.088569    7.140933    10.368649    79.120201    31.513340    -3.152223    -6.150881    -34.561436    23.396259    41.722885    -23.577267    28.984846    -11.887421    -7.752815    13.473423    -4.523730    43.490635    -4.841444    16.279720    -20.214605    7.031346    -3.909448    -6.942704    5.719170    -20.870073    -26.994516    -13.355483    -26.025078    65.768410    16.114958    6.387267    -20.700024    -14.391806    0.641177    -15.806034    -1.412357    
23.317884    73.309563    18.809320    8.464312    -13.452653    -45.197372    -10.486507    4.157240    -0.608876    -7.423892    12.526823    -0.174713    5.680555    26.093607    0.485640    19.977589    -45.798332    11.774210    7.036400    4.249829    9.039169    -81.314507    18.410089    -11.288871    -0.548309    -27.072126    -50.352741    28.010866    -29.513714    -10.056188    -3.961165    6.618649    10.156695    78.870766    32.499859    -3.172646    -6.591202    -32.132488    23.259014    45.848881    -19.993835    28.142239    -11.702107    -8.244342    14.712117    -4.316052    43.426174    -4.332423    15.644357    -20.168762    6.688244    -3.704993    -7.068154    5.424982    -21.407192    -27.770731    -15.085024    -24.463636    65.492004    15.288925    5.573949    -21.129986    -14.432689    0.471712    -15.145204    -1.028348    
23.389458    73.381470    18.652313    8.383855    -13.218444    -46.953865    -10.928412    4.489264    -1.108651    -6.755567    12.528055    -0.796071    6.669562    25.627546    -0.096570    20.325800    -47.535610    11.741217    7.370354    4.276349    8.182992    -80.824188    22.125340    -11.436451    -1.372128    -26.765621    -48.812912    28.159660    -29.418871    -9.486515    -3.947054    6.606454    10.328800    78.663040    33.043339    -3.168879    -6.707363    -29.748051    23.009741    48.358963    -16.734375    27.910324    -11.538589    -8.686582    15.734955    -4.318861    43.297173    -3.277143    15.299111    -20.242325    6.290530    -3.682915    -7.069538    5.392730    -21.843983    -28.686001    -16.560612    -23.270903    65.295944    15.417234    4.665655    -21.023041    -14.880284    0.441384    -15.083707    -0.961313    
